<svg width="4" height="16" viewBox="0 0 4 16" fill="none" xmlns="http://www.w3.org/2000/svg">
<path d="M0.5 2.00015C0.5 1.79013 0.5 1.68662 0.512 1.59961C0.550181 1.32464 0.677043 1.06965 0.873319 0.873357C1.0696 0.677061 1.32456 0.550186 1.5995 0.512001C1.685 0.5 1.79 0.5 2 0.5C2.21 0.5 2.3135 0.5 2.4005 0.512001C2.67544 0.550186 2.9304 0.677061 3.12668 0.873357C3.32296 1.06965 3.44982 1.32464 3.488 1.59961C3.5 1.68512 3.5 1.79013 3.5 2.00015C3.5 2.21017 3.5 2.31368 3.488 2.40069C3.44982 2.67566 3.32296 2.93065 3.12668 3.12694C2.9304 3.32324 2.67544 3.45011 2.4005 3.4883C2.315 3.5003 2.21 3.5003 2 3.5003C1.79 3.5003 1.6865 3.5003 1.5995 3.4883C1.32456 3.45011 1.0696 3.32324 0.873319 3.12694C0.677043 2.93065 0.550181 2.67566 0.512 2.40069C0.5 2.31518 0.5 2.21017 0.5 2.00015ZM0.5 8.00075C0.5 7.79073 0.5 7.68722 0.512 7.60021C0.550181 7.32524 0.677043 7.07025 0.873319 6.87396C1.0696 6.67766 1.32456 6.55079 1.5995 6.5126C1.685 6.5006 1.79 6.5006 2 6.5006C2.21 6.5006 2.3135 6.5006 2.4005 6.5126C2.67544 6.55079 2.9304 6.67766 3.12668 6.87396C3.32296 7.07025 3.44982 7.32524 3.488 7.60021C3.5 7.68572 3.5 7.79073 3.5 8.00075C3.5 8.21077 3.5 8.31428 3.488 8.40129C3.44982 8.67626 3.32296 8.93125 3.12668 9.12754C2.9304 9.32384 2.67544 9.45071 2.4005 9.4889C2.315 9.5009 2.21 9.5009 2 9.5009C1.79 9.5009 1.6865 9.5009 1.5995 9.4889C1.32456 9.45071 1.0696 9.32384 0.873319 9.12754C0.677043 8.93125 0.550181 8.67626 0.512 8.40129C0.5 8.31578 0.5 8.21077 0.5 8.00075ZM0.5 14.0014C0.5 13.7928 0.5 13.6878 0.512 13.6008C0.550405 13.3263 0.677181 13.0718 0.873135 12.8759C1.06909 12.6799 1.32355 12.5531 1.598 12.5147C1.6865 12.5027 1.79 12.5027 1.9985 12.5027C2.207 12.5027 2.3135 12.5027 2.399 12.5147C2.67345 12.5531 2.92791 12.6799 3.12386 12.8759C3.31982 13.0718 3.44659 13.3263 3.485 13.6008C3.497 13.6878 3.497 13.7928 3.497 14.0014C3.497 14.2099 3.497 14.3149 3.485 14.4019C3.44659 14.6764 3.31982 14.9309 3.12386 15.1268C2.92791 15.3228 2.67345 15.4496 2.399 15.488C2.312 15.5 2.207 15.5 1.9985 15.5C1.79 15.5 1.685 15.5 1.598 15.488C1.32355 15.4496 1.06909 15.3228 0.873135 15.1268C0.677181 14.9309 0.550405 14.6764 0.512 14.4019C0.5 14.3149 0.5 14.2099 0.5 14.0014Z" fill="#747474"/>
</svg>
