<svg width="15" height="15" viewBox="0 0 15 15" fill="none" xmlns="http://www.w3.org/2000/svg">
<path d="M7.5 10.7969L4.90625 12.3594C4.79167 12.4323 4.67187 12.4635 4.54687 12.4531C4.42187 12.4427 4.3125 12.401 4.21875 12.3281C4.125 12.2552 4.05208 12.1642 4 12.055C3.94792 11.9458 3.9375 11.8233 3.96875 11.6875L4.65625 8.73438L2.35937 6.75C2.25521 6.65625 2.19021 6.54937 2.16437 6.42937C2.13854 6.30937 2.14625 6.19229 2.1875 6.07813C2.22875 5.96396 2.29125 5.87021 2.375 5.79687C2.45875 5.72354 2.57333 5.67667 2.71875 5.65625L5.75 5.39063L6.92187 2.60938C6.97396 2.48438 7.05479 2.39062 7.16437 2.32812C7.27396 2.26562 7.38583 2.23437 7.5 2.23438C7.61417 2.23438 7.72604 2.26562 7.83562 2.32812C7.94521 2.39062 8.02604 2.48438 8.07812 2.60938L9.25 5.39063L12.2812 5.65625C12.4271 5.67708 12.5417 5.72396 12.625 5.79687C12.7083 5.86979 12.7708 5.96354 12.8125 6.07813C12.8542 6.19271 12.8621 6.31 12.8362 6.43C12.8104 6.55 12.7452 6.65667 12.6406 6.75L10.3437 8.73438L11.0312 11.6875C11.0625 11.8229 11.0521 11.9454 11 12.055C10.9479 12.1646 10.875 12.2556 10.7812 12.3281C10.6875 12.4006 10.5781 12.4423 10.4531 12.4531C10.3281 12.464 10.2083 12.4327 10.0937 12.3594L7.5 10.7969Z" fill="#00B906"/>
</svg>
