<svg width="25" height="24" viewBox="0 0 25 24" fill="none" xmlns="http://www.w3.org/2000/svg">
<path d="M8.5 16H15.763C20.251 16 20.933 13.18 21.761 9.07C22 7.883 22.119 7.29 21.832 6.895C21.545 6.5 20.995 6.5 19.894 6.5H19.5M6.5 6.5H8.5" stroke="white" stroke-width="1.5" stroke-linecap="round" stroke-linejoin="round"/>
<path d="M11.5 8.5C11.992 9.006 13.3 11 14 11M14 11C14.7 11 16.008 9.006 16.5 8.5M14 11V3M8.5 16L5.879 3.515C5.77085 3.08232 5.52118 2.69821 5.16967 2.4237C4.81816 2.1492 4.38499 2.00007 3.939 2H3M9.38 16H8.969C7.605 16 6.5 17.151 6.5 18.571C6.49881 18.6262 6.50849 18.681 6.5285 18.7324C6.54851 18.7838 6.57846 18.8308 6.61662 18.8706C6.65479 18.9105 6.70043 18.9424 6.75094 18.9646C6.80145 18.9868 6.85584 18.9988 6.911 19H18" stroke="white" stroke-width="1.5" stroke-linecap="round" stroke-linejoin="round"/>
<path d="M11 22C11.8284 22 12.5 21.3284 12.5 20.5C12.5 19.6716 11.8284 19 11 19C10.1716 19 9.5 19.6716 9.5 20.5C9.5 21.3284 10.1716 22 11 22Z" stroke="white" stroke-width="1.5" stroke-linecap="round" stroke-linejoin="round"/>
<path d="M18 22C18.8284 22 19.5 21.3284 19.5 20.5C19.5 19.6716 18.8284 19 18 19C17.1716 19 16.5 19.6716 16.5 20.5C16.5 21.3284 17.1716 22 18 22Z" stroke="white" stroke-width="1.5" stroke-linecap="round" stroke-linejoin="round"/>
</svg>
