<svg width="26" height="26" viewBox="0 0 26 26" fill="none" xmlns="http://www.w3.org/2000/svg">
<path d="M12.4792 13.5208H7.27084C7.12292 13.5208 6.99931 13.4708 6.90001 13.3708C6.8007 13.2708 6.7507 13.1469 6.75001 12.999C6.74931 12.851 6.79931 12.7274 6.90001 12.6281C7.0007 12.5288 7.12431 12.4792 7.27084 12.4792H12.4792V7.27084C12.4792 7.12292 12.5292 6.99931 12.6292 6.90001C12.7292 6.8007 12.8531 6.7507 13.001 6.75001C13.149 6.74931 13.2726 6.79931 13.3719 6.90001C13.4712 7.0007 13.5208 7.12431 13.5208 7.27084V12.4792H18.7292C18.8771 12.4792 19.0007 12.5292 19.1 12.6292C19.1993 12.7292 19.2493 12.8531 19.25 13.001C19.2507 13.149 19.2007 13.2726 19.1 13.3719C18.9993 13.4712 18.8757 13.5208 18.7292 13.5208H13.5208V18.7292C13.5208 18.8771 13.4708 19.0007 13.3708 19.1C13.2708 19.1993 13.1469 19.2493 12.999 19.25C12.851 19.2507 12.7274 19.2007 12.6281 19.1C12.5288 18.9993 12.4792 18.8757 12.4792 18.7292V13.5208Z" fill="white"/>
</svg>
